<svg width="24" height="24" viewBox="0 0 24 24" fill="none" xmlns="http://www.w3.org/2000/svg">
<path d="M12 22.8533C12.42 22.8437 12.823 22.6858 13.1377 22.4076C13.4525 22.1294 13.6587 21.7489 13.72 21.3333H10.2133C10.2763 21.7602 10.4922 22.1497 10.8209 22.4293C11.1495 22.7089 11.5685 22.8596 12 22.8533Z" fill="#CCCCCC"/>
<path d="M21.9 18.7533L21.6733 18.5533C21.0303 17.9804 20.4674 17.3234 20 16.6C19.4895 15.6017 19.1835 14.5115 19.1 13.3933V10.1C19.0973 9.69997 19.0616 9.30084 18.9933 8.90667C17.8641 8.67456 16.8497 8.05935 16.122 7.16519C15.3943 6.27103 14.9979 5.15287 15 4V3.58C14.3039 3.23746 13.5561 3.01221 12.7867 2.91334V2.07334C12.7867 1.8373 12.6929 1.61092 12.526 1.44401C12.3591 1.27711 12.1327 1.18334 11.8967 1.18334C11.6606 1.18334 11.4342 1.27711 11.2673 1.44401C11.1004 1.61092 11.0067 1.8373 11.0067 2.07334V2.94667C9.28381 3.18971 7.70705 4.04783 6.56748 5.36263C5.42791 6.67742 4.80248 8.3601 4.80667 10.1V13.3933C4.72317 14.5115 4.41718 15.6017 3.90667 16.6C3.44725 17.3216 2.89346 17.9785 2.26 18.5533L2.03333 18.7533V20.6333H21.9V18.7533Z" fill="#CCCCCC"/>
<path d="M20 7.33333C21.8409 7.33333 23.3333 5.84094 23.3333 3.99999C23.3333 2.15904 21.8409 0.66666 20 0.66666C18.159 0.66666 16.6667 2.15904 16.6667 3.99999C16.6667 5.84094 18.159 7.33333 20 7.33333Z" fill="#FF9F1C"/>
</svg>
